<svg width="2389" height="82" viewBox="0 0 2389 82" fill="none" xmlns="http://www.w3.org/2000/svg">
<path d="M1144.5 18.5H1165C1168.04 18.5 1170.5 20.9624 1170.5 24C1170.5 27.0376 1168.04 29.5 1165 29.5H1144.5V18.5Z" fill="white" stroke="#8E8B8B"/>
<path d="M1145 20L1148.46 29H1141.54L1145 20Z" fill="#D2D1D1"/>
<path d="M1144.5 44.5H1165C1168.04 44.5 1170.5 46.9624 1170.5 50C1170.5 53.0376 1168.04 55.5 1165 55.5H1144.5V44.5Z" fill="white" stroke="#8E8B8B"/>
<path d="M1145 46L1148.46 55H1141.54L1145 46Z" fill="#D2D1D1"/>
<path d="M1053 21.5H1076.5V53.5H1053C1048.31 53.5 1044.5 49.6944 1044.5 45V30C1044.5 25.3056 1048.31 21.5 1053 21.5Z" fill="white" stroke="#8E8B8B" stroke-width="3"/>
<path d="M1086 9.5H1135.5V65.5H1086C1079.65 65.5 1074.5 60.3513 1074.5 54V21C1074.5 14.6487 1079.65 9.5 1086 9.5Z" fill="white" stroke="#8E8B8B" stroke-width="3"/>
<path d="M1127.5 1.5H1143.5V73.5H1127.5V1.5Z" fill="white" stroke="#8E8B8B" stroke-width="3"/>
<rect x="1" y="33" width="1043" height="9" fill="#C4C4C4" stroke="#8E8B8B" stroke-width="2"/>
<path d="M1310 54.5L1286.5 54.5V22.5L1310 22.5C1314.69 22.5 1318.5 26.3056 1318.5 31V46C1318.5 50.6944 1314.69 54.5 1310 54.5Z" fill="white" stroke="#8E8B8B" stroke-width="3"/>
<path d="M1290 27L1297.79 53.025H1282.21L1290 27Z" fill="#D2D1D1"/>
<path d="M1277 66.5L1227.5 66.5V10.5L1277 10.5C1283.35 10.5 1288.5 15.6487 1288.5 22V55C1288.5 61.3513 1283.35 66.5 1277 66.5Z" fill="white" stroke="#8E8B8B" stroke-width="3"/>
<path d="M1237 16L1245.66 64.975H1228.34L1237 16Z" fill="#D2D1D1"/>
<path d="M1235.5 74.5H1219.5V2.50001H1235.5V74.5Z" fill="white" stroke="#8E8B8B" stroke-width="3"/>
<rect x="1319" y="34" width="1069" height="9" fill="#C4C4C4" stroke="#8E8B8B" stroke-width="2"/>
</svg>
