<svg width="677" height="82" viewBox="0 0 677 82" fill="none" xmlns="http://www.w3.org/2000/svg">
<path d="M301.5 18.5H322C325.038 18.5 327.5 20.9624 327.5 24C327.5 27.0376 325.038 29.5 322 29.5H301.5V18.5Z" fill="white" stroke="#8E8B8B"/>
<path d="M302 20L305.464 29H298.536L302 20Z" fill="#D2D1D1"/>
<path d="M301.5 44.5H322C325.038 44.5 327.5 46.9624 327.5 50C327.5 53.0376 325.038 55.5 322 55.5H301.5V44.5Z" fill="white" stroke="#8E8B8B"/>
<path d="M302 46L305.464 55H298.536L302 46Z" fill="#D2D1D1"/>
<path d="M210 21.5H233.5V53.5H210C205.306 53.5 201.5 49.6944 201.5 45V30C201.5 25.3056 205.306 21.5 210 21.5Z" fill="white" stroke="#8E8B8B" stroke-width="3"/>
<path d="M243 9.5H292.5V65.5H243C236.649 65.5 231.5 60.3513 231.5 54V21C231.5 14.6487 236.649 9.5 243 9.5Z" fill="white" stroke="#8E8B8B" stroke-width="3"/>
<path d="M284.5 1.5H300.5V73.5H284.5V1.5Z" fill="white" stroke="#8E8B8B" stroke-width="3"/>
<rect x="1" y="33" width="200" height="9" fill="#C4C4C4" stroke="#8E8B8B" stroke-width="2"/>
<path d="M467 54.5L443.5 54.5V22.5L467 22.5C471.694 22.5 475.5 26.3056 475.5 31V46C475.5 50.6944 471.694 54.5 467 54.5Z" fill="white" stroke="#8E8B8B" stroke-width="3"/>
<path d="M447 27L454.794 53.025H439.206L447 27Z" fill="#D2D1D1"/>
<path d="M434 66.5L384.5 66.5V10.5L434 10.5C440.351 10.5 445.5 15.6487 445.5 22V55C445.5 61.3513 440.351 66.5 434 66.5Z" fill="white" stroke="#8E8B8B" stroke-width="3"/>
<path d="M394 16L402.66 64.975H385.34L394 16Z" fill="#D2D1D1"/>
<path d="M392.5 74.5H376.5V2.50001H392.5V74.5Z" fill="white" stroke="#8E8B8B" stroke-width="3"/>
<rect x="476" y="34" width="200" height="9" fill="#C4C4C4" stroke="#8E8B8B" stroke-width="2"/>
</svg>
